<svg xmlns="http://www.w3.org/2000/svg" version="1.1" xmlns:xlink="http://www.w3.org/1999/xlink" xmlns:svgjs="http://svgjs.dev/svgjs" viewBox="0 0 7.469264516066851 2.785281361769977"><g transform="matrix(1,0,0,1,0.3707993302234116,0.4183531808849885)"><g><path d=" M 0.921 0.25499999999999967 L 0.615 0.25499999999999967 L 0.615 1.0649999999999997 L 0.3225 1.0649999999999997 L 0.3225 0.25499999999999967 L 0.015 0.25499999999999967 L 0.015 -2.220446049250313e-16 L 0.921 -2.220446049250313e-16 L 0.921 0.25499999999999967 M 1.50753515625 1.0739999999999996 Q 1.38003515625 1.0739999999999996 1.28853515625 1.0319999999999998 Q 1.1970351562500001 0.9899999999999998 1.13928515625 0.9164999999999998 Q 1.08153515625 0.8429999999999997 1.05453515625 0.7477499999999997 Q 1.02753515625 0.6524999999999996 1.02753515625 0.5474999999999998 L 1.02753515625 -2.220446049250313e-16 L 1.32003515625 -2.220446049250313e-16 L 1.32003515625 0.5474999999999998 Q 1.32003515625 0.5999999999999996 1.33053515625 0.6479999999999997 Q 1.34103515625 0.6959999999999997 1.36353515625 0.7334999999999997 Q 1.38603515625 0.7709999999999997 1.42128515625 0.7927499999999997 Q 1.4565351562500002 0.8144999999999998 1.50753515625 0.8144999999999998 Q 1.56003515625 0.8144999999999998 1.5960351562500001 0.7927499999999997 Q 1.6320351562500002 0.7709999999999997 1.65378515625 0.7327499999999998 Q 1.67553515625 0.6944999999999997 1.68603515625 0.6464999999999997 Q 1.69653515625 0.5984999999999997 1.69653515625 0.5474999999999998 L 1.69653515625 -2.220446049250313e-16 L 1.98903515625 -2.220446049250313e-16 L 1.98903515625 0.5474999999999998 Q 1.98903515625 0.6584999999999996 1.9597851562500002 0.7544999999999997 Q 1.93053515625 0.8504999999999997 1.87203515625 0.9224999999999997 Q 1.81353515625 0.9944999999999997 1.72278515625 1.0342499999999997 Q 1.6320351562500002 1.0739999999999996 1.50753515625 1.0739999999999996 M 2.172006591796875 1.0649999999999997 L 2.172006591796875 -2.220446049250313e-16 L 2.581506591796875 -2.220446049250313e-16 Q 2.758506591796875 -2.220446049250313e-16 2.8777565917968753 0.0712499999999997 Q 2.9970065917968753 0.14249999999999974 3.0577565917968754 0.26324999999999976 Q 3.1185065917968755 0.3839999999999997 3.1185065917968755 0.5309999999999997 Q 3.1185065917968755 0.6929999999999997 3.051756591796875 0.8129999999999997 Q 2.9850065917968753 0.9329999999999997 2.864256591796875 0.9989999999999997 Q 2.7435065917968755 1.0649999999999997 2.581506591796875 1.0649999999999997 L 2.172006591796875 1.0649999999999997 M 2.8215065917968754 0.5309999999999997 Q 2.8215065917968754 0.4484999999999997 2.793006591796875 0.38624999999999976 Q 2.7645065917968754 0.32399999999999973 2.710506591796875 0.28949999999999976 Q 2.6565065917968753 0.25499999999999967 2.581506591796875 0.25499999999999967 L 2.464506591796875 0.25499999999999967 L 2.464506591796875 0.8099999999999997 L 2.581506591796875 0.8099999999999997 Q 2.6580065917968754 0.8099999999999997 2.711256591796875 0.7739999999999998 Q 2.7645065917968754 0.7379999999999998 2.793006591796875 0.6742499999999998 Q 2.8215065917968754 0.6104999999999997 2.8215065917968754 0.5309999999999997 M 3.7260117187500006 1.0739999999999996 Q 3.59851171875 1.0739999999999996 3.5070117187500003 1.0319999999999998 Q 3.4155117187500004 0.9899999999999998 3.3577617187500004 0.9164999999999998 Q 3.3000117187500004 0.8429999999999997 3.2730117187500003 0.7477499999999997 Q 3.24601171875 0.6524999999999996 3.24601171875 0.5474999999999998 L 3.24601171875 -2.220446049250313e-16 L 3.5385117187500006 -2.220446049250313e-16 L 3.5385117187500006 0.5474999999999998 Q 3.5385117187500006 0.5999999999999996 3.5490117187500005 0.6479999999999997 Q 3.5595117187500005 0.6959999999999997 3.5820117187500005 0.7334999999999997 Q 3.6045117187500004 0.7709999999999997 3.6397617187500004 0.7927499999999997 Q 3.6750117187500004 0.8144999999999998 3.7260117187500006 0.8144999999999998 Q 3.7785117187500004 0.8144999999999998 3.8145117187500004 0.7927499999999997 Q 3.8505117187500004 0.7709999999999997 3.8722617187500004 0.7327499999999998 Q 3.8940117187500003 0.6944999999999997 3.9045117187500002 0.6464999999999997 Q 3.9150117187500006 0.5984999999999997 3.9150117187500006 0.5474999999999998 L 3.9150117187500006 -2.220446049250313e-16 L 4.20751171875 -2.220446049250313e-16 L 4.20751171875 0.5474999999999998 Q 4.20751171875 0.6584999999999996 4.178261718750001 0.7544999999999997 Q 4.149011718750001 0.8504999999999997 4.09051171875 0.9224999999999997 Q 4.032011718750001 0.9944999999999997 3.9412617187500003 1.0342499999999997 Q 3.8505117187500004 1.0739999999999996 3.7260117187500006 1.0739999999999996" fill="#202020" fill-rule="nonzero"></path></g><g><path d=" M 2.7907423095703123 1.948575 L 2.7907423095703123 1.416075 L 2.8432423095703125 1.416075 L 2.8432423095703125 1.902075 L 3.1507423095703126 1.902075 L 3.1507423095703126 1.948575 L 2.7907423095703123 1.948575 M 3.235498168945312 1.948575 L 3.235498168945312 1.416075 L 3.2879981689453124 1.416075 L 3.2879981689453124 1.948575 L 3.235498168945312 1.948575 M 3.8069875488281246 1.462575 L 3.6172375488281245 1.462575 L 3.6172375488281245 1.948575 L 3.5647375488281248 1.948575 L 3.5647375488281248 1.462575 L 3.3749875488281247 1.462575 L 3.3749875488281247 1.416075 L 3.8069875488281246 1.416075 L 3.8069875488281246 1.462575 M 4.251726562499999 1.902075 L 4.251726562499999 1.948575 L 3.8939765624999993 1.948575 L 3.8939765624999993 1.416075 L 4.2449765625 1.416075 L 4.2449765625 1.462575 L 3.9464765624999996 1.462575 L 3.9464765624999996 1.654575 L 4.206726562499999 1.654575 L 4.206726562499999 1.698825 L 3.9464765624999996 1.698825 L 3.9464765624999996 1.902075 L 4.251726562499999 1.902075" fill="#1192dc" fill-rule="nonzero"></path></g><g clip-path="url(#SvgjsClipPath1001)"><g clip-path="url(#a440de234-f493-41ca-9cba-20e6296ccbf0bab32a90-b275-413e-955b-c346be0186d9)"><path d=" M 6.254123235151798 0.3013459455101357 L 6.029827530345418 0.3013459455101357 L 6.029827530345418 0.3511855383998725 L 6.2042836422620615 0.3511855383998725 C 6.217997421867894 0.3511855383998725 6.229185901904366 0.3623389448312141 6.229185901904366 0.3761228716473059 L 6.229185901904366 1.4727692832471648 C 6.2291966646076276 1.4793757534588852 6.226570709740335 1.4857133945328311 6.221890592037323 1.4903762330224284 L 6.022532220478377 1.6897696781865046 C 6.017847673016686 1.694438762442449 6.0115042218310535 1.6970618993144397 6.004890197097985 1.6970649880535453 L 5.207386563651936 1.6970649880535453 C 5.193627740273718 1.6970650016621098 5.182468581773524 1.6859215381809027 5.182449230404503 1.672162728411242 L 5.182449230404503 0.37612287164730607 C 5.182439904602689 0.36950622512256964 5.185064228378751 0.3631578969211813 5.189742908652283 0.3584792166476502 C 5.194421588925815 0.35380053637411907 5.200769917127204 0.3511762125980576 5.207386563651938 0.3511855383998727 L 5.38184267556858 0.3511855383998727 L 5.38184267556858 0.3013459455101357 L 5.1575469707621995 0.3013459455101357 C 5.15088681940164 0.3011907691745239 5.144453350815567 0.30376822624038735 5.139742634530292 0.30847894252566194 C 5.135031918245018 0.3131896588109365 5.1324544611791545 0.31962312739700915 5.132609637514767 0.32628327875756913 L 5.132609637514767 1.7220023213009783 C 5.132609637514767 1.7362071313786303 5.1433070870794175 1.7469045809432817 5.1575469707621995 1.7469045809432817 L 6.254123235151798 1.7469045809432817 C 6.268328045229451 1.7469045809432817 6.279060568399232 1.7362071313786303 6.279060568399232 1.7220023213009783 L 6.279060568399232 0.32628327875756913 C 6.279215744734843 0.31962312739700915 6.27663828766898 0.3131896588109365 6.271927571383706 0.30847894252566194 C 6.2672168550984315 0.30376822624038735 6.260783386512358 0.3011907691745239 6.254123235151798 0.3013459455101357" fill="#facf0e" transform="matrix(1,0,0,1,0,0)" fill-rule="nonzero"></path></g><g clip-path="url(#a440de234-f493-41ca-9cba-20e6296ccbf0bab32a90-b275-413e-955b-c346be0186d9)"><path d=" M 5.705817566154434 0.3013459455101357 C 5.746993978577059 0.3013459455101357 5.780594492291604 0.2678155790058512 5.780594492291604 0.22656901937296559 C 5.780517286973709 0.18530288522468066 5.7470837003027135 0.15186929855368708 5.7058175661544315 0.1517920932357954 C 5.664551432006152 0.15186929855368872 5.631117845335157 0.18530288522468358 5.631040640017264 0.22656901937296559 C 5.631040640017264 0.2678155790058512 5.664641153731808 0.3013459455101357 5.705817566154434 0.3013459455101357" fill="#fbe585" transform="matrix(1,0,0,1,0,0)" fill-rule="nonzero"></path></g><g clip-path="url(#a440de234-f493-41ca-9cba-20e6296ccbf0bab32a90-b275-413e-955b-c346be0186d9)"><path d=" M 5.2322888232942395 1.6472253951638085 L 5.979952863850551 1.6472253951638085 L 5.979952863850551 1.4727692832471648 C 5.979952863850551 1.4590204300362029 5.991141343887023 1.4478319499997314 6.004890197097985 1.4478319499997314 L 6.179346309014628 1.4478319499997314 L 6.179346309014628 0.4010251312896093 L 6.025197814468258 0.4010251312896093 C 6.014721087430534 0.4308157642314784 5.9866295735831185 0.45078883057699054 5.955050604208248 0.4508997977844759 L 5.4565845281006204 0.4508997977844759 C 5.424999384640932 0.4507827332270992 5.396900823147686 0.4308146400519881 5.38640224423548 0.4010251312896093 L 5.2322888232942395 0.4010251312896093 Z M 5.905211011318511 0.5505789835639496 L 6.104569382877458 0.5505789835639496 C 6.1179686159983895 0.5510817592820777 6.128571657495782 0.5620901174486742 6.128571657495782 0.575498780008818 C 6.128571657495782 0.5889074425689617 6.1179686159983895 0.5999158007355582 6.104569382877458 0.6004185764536862 L 5.905211011318511 0.6004185764536862 C 5.89181177819758 0.5999158007355582 5.881208736700187 0.5889074425689617 5.881208736700187 0.575498780008818 C 5.881208736700187 0.5620901174486742 5.89181177819758 0.5510817592820777 5.905211011318511 0.5505789835639496 M 6.124526264196431 0.8895653771454456 C 5.82145524226806 1.2936133082431005 5.423545192068156 1.298278097725391 5.406744935210884 1.298278097725391 C 5.397841949371129 1.2982843630942085 5.3896119086763115 1.293540466097806 5.385154989842012 1.2858333868441465 C 5.380698071007712 1.2781263075904867 5.380691386038853 1.268626934776347 5.385137453098535 1.26091359024764 C 5.389583520158217 1.253200245718933 5.397806875884256 1.248444770016772 5.406709861724143 1.248438504835571 C 5.410603031775183 1.2484385048356543 5.797149233912966 1.2430020960405035 6.084612501558485 0.8596125183644217 C 6.0929655368507785 0.8487034974452665 6.108514303436533 0.8464889288844069 6.1195808858731 0.8546320664359607 C 6.130580474351051 0.8629204445535934 6.132793026135993 0.878549533757864 6.12452626419643 0.8895653771454456 M 5.30706574943141 0.5505789835639496 L 5.805496751933907 0.5505789835639496 C 5.818895985054839 0.5510817592820777 5.829499026552232 0.5620901174486742 5.829499026552232 0.575498780008818 C 5.829499026552232 0.5889074425689617 5.818895985054839 0.5999158007355582 5.805496751933907 0.6004185764536862 L 5.30706574943141 0.6004185764536862 C 5.293302925886022 0.6004185764536862 5.282145952986541 0.5892616035542064 5.282145952986541 0.575498780008818 C 5.282145952986541 0.5617359564634294 5.293302925886022 0.5505789835639496 5.30706574943141 0.5505789835639496 M 5.30706574943141 0.6502932429485531 L 5.6061383803749605 0.6502932429485531 C 5.619901203920349 0.6502932429485531 5.631058176819829 0.6614502158480331 5.631058176819829 0.6752130393934215 C 5.631058176819829 0.68897586293881 5.619901203920349 0.7001328358382898 5.6061383803749605 0.7001328358382898 L 5.30706574943141 0.7001328358382898 C 5.293302925886022 0.7001328358382898 5.282145952986541 0.68897586293881 5.282145952986541 0.6752130393934215 C 5.282145952986541 0.6614502158480331 5.293302925886022 0.6502932429485531 5.30706574943141 0.6502932429485531 M 5.282128416183976 0.8745889477549335 C 5.28298238794249 0.8614537739521297 5.293885307987612 0.8512366795249205 5.307048212628845 0.8512366795249205 C 5.320211117270079 0.8512366795249205 5.331114037315199 0.8614537739521297 5.331968009073713 0.8745889477549335 L 5.331968009073713 1.348152764220258 L 6.104569382877458 1.348152764220258 C 6.117704556680263 1.3490067359787719 6.127921651107471 1.359909656023893 6.127921651107471 1.3730725606651262 C 6.127921651107471 1.3862354653063595 6.117704556680263 1.3971383853514807 6.104569382877458 1.3979923571099946 L 5.30706574943141 1.3979923571099946 C 5.300451957441567 1.3979923571099948 5.294109049152817 1.3953650384719056 5.289432391987441 1.3906883813065303 C 5.284755734822065 1.3860117241411547 5.282128416183976 1.3796688158524044 5.282128416183976 1.3730550238625612 Z" fill="#fbe585" transform="matrix(1,0,0,1,0,0)" fill-rule="nonzero"></path></g><g clip-path="url(#a440de234-f493-41ca-9cba-20e6296ccbf0bab32a90-b275-413e-955b-c346be0186d9)"><path d=" M 5.45661960170575 0.4010602048947395 L 5.955050604208248 0.4010602048947395 C 5.96879945741921 0.4010602048947395 5.9799879374556815 0.389871724858268 5.9799879374556815 0.37612287164730607 L 5.9799879374556815 0.2764436858678325 C 5.979949403570918 0.26268716988595203 5.968807120190125 0.2515448865051608 5.955050604208246 0.2515063526203991 L 5.827943859217111 0.2515063526203991 C 5.816048095561998 0.3094949892490368 5.765048803204306 0.3511470973136499 5.705852639759564 0.3512206120050027 C 5.64664329851098 0.35116372592573036 5.595624773144928 0.3095078765243274 5.583726346696888 0.2515063526203992 L 5.45661960170575 0.2515063526203992 C 5.442863085723872 0.25154488650516177 5.431720802343079 0.26268716988595375 5.431682268458317 0.2764436858678325 L 5.431682268458317 0.37612287164730607 C 5.431682268458317 0.389871724858268 5.4429058220999185 0.4010602048947395 5.45661960170575 0.4010602048947395" fill="#1192dc" transform="matrix(1,0,0,1,0,0)" fill-rule="nonzero"></path></g><g clip-path="url(#SvgjsClipPath1000bab32a90-b275-413e-955b-c346be0186d9)"><path d=" M 6.144109754576757 1.4976966020784575 L 6.029804875458071 1.4976966020784575 L 6.029804875458071 1.612001481197143 Z" fill="#fbe585" transform="matrix(1,0,0,1,0,0)" fill-rule="nonzero"></path></g><g clip-path="url(#b440de234-f493-41ca-9cba-20e6296ccbf0bab32a90-b275-413e-955b-c346be0186d9)"><path d=" M 5.807285505795538 1.8468994291689256 C 5.800724640227808 1.8457327323355355 5.793972673391081 1.847314896958314 5.788613120788807 1.8512748634231122 C 5.7832535681865345 1.8552348298879107 5.779757932404404 1.8612242231406986 5.778946032850494 1.8678383714315383 C 5.777961023504813 1.8743736388602876 5.779614335223056 1.8810324192098138 5.783541789505209 1.8863479687240172 C 5.787469243787362 1.891663518238221 5.793348663066718 1.8951997908971716 5.799884975113107 1.8961778443765822 L 6.460811990182917 1.9958570301560556 C 6.474416703613321 1.9978879891503147 6.487096703347028 1.9885192269708305 6.4891514631279605 1.9749180878934427 L 6.727371389170953 0.3977632860125187 C 6.7294014227828 0.38416608019142173 6.72002855943529 0.3714962297367477 6.70643244690834 0.36945888667260474 L 6.4073598159647895 0.3245646721061986 C 6.400807118804925 0.3234296052656482 6.39407533207695 0.3250250173215261 6.388728988664738 0.3289801189536085 C 6.383382645252526 0.3329352205856908 6.379887340249624 0.33890557527496024 6.379055416624875 0.3455036143688113 C 6.378060634766112 0.35203103018998066 6.379706433687185 0.35868586881889425 6.383629033201332 0.3639971738657343 C 6.387551632715479 0.36930847891257435 6.393428013213609 0.37283887315496383 6.399959285282359 0.3738080137087256 L 6.674410245424646 0.41501949973648095 L 6.443590850064084 1.9428958864097483 Z" fill="#202020" transform="matrix(1,0,0,1,0,0)" fill-rule="nonzero"></path></g><g clip-path="url(#b440de234-f493-41ca-9cba-20e6296ccbf0bab32a90-b275-413e-955b-c346be0186d9)"><path d=" M 5.89682841969244 -0.047496131112891526 L 4.706535482395468 0.06712441045196403 C 4.692838168067594 0.06847371173818627 4.682805937080106 0.08063779181051517 4.684088375112265 0.09434152803284773 L 4.836588410217526 1.6824743683194634 C 4.837920106208444 1.6961708025152835 4.8500673486067996 1.70621774751831 4.863770454193279 1.704956549207796 L 5.010307976426439 1.6910323279711845 C 5.024018513204215 1.6897185879552765 5.034085709441931 1.6775658199113046 5.032825230919903 1.6638502839954308 C 5.031492433924962 1.650031283574209 5.018795788867901 1.6395442756403378 5.005643186944149 1.6413681031070977 L 4.883867629932772 1.6529774664051293 L 4.736137605125192 0.1144036301672107 L 5.8767663175580775 0.004553098900035538 L 5.888340607250979 0.12916961792694245 C 5.889638330640789 0.14288339753277432 5.90198423964655 0.1522480501024856 5.915522651226732 0.15168687242040552 C 5.922099508719477 0.15107359927043051 5.928163264963735 0.14787245123889828 5.932379626371734 0.14278782195904943 C 5.936595987779732 0.1377031926792006 5.938619475158574 0.13115170526509234 5.938004832115065 0.12457497565491188 L 5.924080610878454 -0.024943803014298466 C 5.922767143039044 -0.03868865944147411 5.9105763473799815 -0.04877705276036348 5.89682841969244 -0.047496131112891526" fill="#202020" transform="matrix(1,0,0,1,0,0)" fill-rule="nonzero"></path></g><g clip-path="url(#b440de234-f493-41ca-9cba-20e6296ccbf0bab32a90-b275-413e-955b-c346be0186d9)"><path d=" M 6.254123235151798 0.25150635262039894 L 6.025232888073387 0.25150635262039894 C 6.014722495977424 0.2217306776974709 5.986626649890364 0.20177855511390635 5.955050604208248 0.20166675973066217 L 5.827943859217111 0.20166675973066217 C 5.816033124248435 0.14367268547316017 5.765022070166043 0.10202293626114398 5.705817566154434 0.10195250034605863 C 5.646626240220879 0.10203955662110739 5.595634412828149 0.14368556790451179 5.583726346696888 0.20166675973066217 L 5.456619601705751 0.20166675973066217 C 5.425036852040892 0.20175765218386602 5.3969301835174655 0.22171746026571976 5.386437317840611 0.25150635262039894 L 5.1575469707621995 0.25150635262039894 C 5.137651698483513 0.25129780941689284 5.118510486654264 0.2591090851013838 5.104441631880139 0.27317793987550865 C 5.0903727771060145 0.28724679464963354 5.082561501421523 0.3063880064788818 5.08277004462503 0.3262832787575691 L 5.08277004462503 1.7220023213009783 C 5.082561501421524 1.7418975935796666 5.0903727771060145 1.7610388054089148 5.10444163188014 1.7751076601830393 C 5.118510486654265 1.7891765149571643 5.137651698483513 1.796987790641655 5.1575469707622 1.7967792474381488 L 6.254123235151798 1.7967792474381488 C 6.296071266887284 1.7967792474381488 6.328900161288969 1.763950353036464 6.328900161288969 1.7220023213009783 L 6.328900161288969 0.326283278757569 C 6.329108704492475 0.30638800647888265 6.321297428807984 0.28724679464963426 6.30722857403386 0.27317793987550926 C 6.293159719259735 0.2591090851013842 6.274018507430487 0.25129780941689306 6.254123235151799 0.25150635262039894 M 5.705817566154434 0.15182716684092543 C 5.747078026144081 0.151885071786182 5.780517229877835 0.18530859109041656 5.780594492291605 0.22656901937296559 C 5.780536536494221 0.2678431454049101 5.747091692186386 0.3012879897127483 5.705817566154438 0.3013459455101357 C 5.664549136961147 0.3012879479402224 5.631114349972262 0.2678374712343076 5.631075713622394 0.22656901937296559 C 5.631075713622394 0.18535753334521 5.664641153731809 0.15182716684092545 5.705817566154434 0.15182716684092545 M 5.431682268458317 0.27644368586783236 C 5.431682268458317 0.2626948326568705 5.442870748494789 0.25150635262039894 5.45661960170575 0.25150635262039894 L 5.583726346696888 0.25150635262039894 C 5.595636589862603 0.3094810484505078 5.64663214280657 0.35111545277879164 5.705817566154434 0.3511855383998725 C 5.76501616642916 0.3511320789379648 5.816030950505615 0.3094939352431675 5.827943859217111 0.25150635262039894 L 5.955050604208248 0.25150635262039894 C 5.968807120190127 0.2515448865051616 5.979949403570918 0.26268716988595353 5.9799879374556815 0.27644368586783236 L 5.9799879374556815 0.3761228716473059 C 5.979949403570918 0.3898793876291864 5.968807120190125 0.4010216710099776 5.955050604208246 0.4010602048947393 L 5.45661960170575 0.4010602048947393 C 5.442863085723872 0.4010216710099767 5.431720802343079 0.38987938762918456 5.431682268458317 0.3761228716473059 Z M 5.45661960170575 0.4508997977844761 L 5.955050604208248 0.4508997977844761 C 5.986626649890364 0.4507880024012319 6.014722495977424 0.4308358798176673 6.025232888073387 0.4010602048947393 L 6.179346309014629 0.4010602048947393 L 6.179346309014629 1.4478319499997316 L 6.004890197097985 1.4478319499997316 C 5.991139397286596 1.447870562507709 5.980007196240683 1.4590184427100246 5.9799879374556815 1.4727692832471648 L 5.9799879374556815 1.647225395163808 L 5.2322888232942395 1.647225395163808 L 5.2322888232942395 0.40106020489473915 L 5.386437317840611 0.40106020489473915 C 5.3969301835174655 0.4308490972494183 5.425036852040892 0.450808905331272 5.45661960170575 0.4508997977844759 M 6.144097335858974 1.4976715428894682 L 6.029827530345418 1.6119764220081538 L 6.029827530345418 1.4976715428894682 Z M 6.279060568399232 1.7220023213009787 C 6.279205657716631 1.7286595322452485 6.276624957264828 1.7350870897169228 6.2719164804162855 1.7397955665654656 C 6.267208003567743 1.7445040434140084 6.260780446096068 1.7470847438658104 6.254123235151798 1.7469396545484122 L 5.1575469707621995 1.7469396545484122 C 5.15088681940164 1.7470948308840237 5.144453350815567 1.7445173738181603 5.139742634530292 1.7398066575328859 C 5.135031918245018 1.7350959412476112 5.1324544611791545 1.7286624726615385 5.132609637514767 1.7220023213009787 L 5.132609637514767 0.3262832787575693 C 5.132609637514767 0.31207846867991734 5.1433070870794175 0.30134594551013594 5.1575469707621995 0.30134594551013594 L 5.38184267556858 0.30134594551013594 L 5.38184267556858 0.35118553839987265 L 5.207386563651936 0.35118553839987265 C 5.200769917127202 0.351176212598058 5.194421588925813 0.3538005363741199 5.189742908652281 0.3584792166476513 C 5.18506422837875 0.36315789692118283 5.182439904602688 0.36950622512257125 5.182449230404503 0.37612287164730607 L 5.182449230404503 1.672162728411242 C 5.182449230404503 1.6858765080170737 5.193602636835845 1.6970649880535453 5.207386563651936 1.6970649880535453 L 6.004890197097985 1.6970649880535453 C 6.011519108467556 1.6970649880535453 6.017832357390956 1.694469541273925 6.022532220478377 1.6897696781865046 L 6.221890592037324 1.4903762330224273 C 6.226577321682651 1.4857178246968372 6.229204472215797 1.4793772979293403 6.229185901904366 1.4727692832471648 L 6.229185901904366 0.3761228716473059 C 6.229185915513285 0.362364048269732 6.218042452032366 0.35120488976924913 6.204283642262706 0.35118553839987343 L 6.029827530345418 0.35118553839987343 L 6.029827530345418 0.3013459455101357 L 6.254123235151798 0.3013459455101357 C 6.260780446096068 0.3012008561927375 6.267208003567743 0.30378155664453954 6.2719164804162855 0.30849003349308246 C 6.276624957264828 0.31319851034162527 6.279205657716631 0.3196260678132994 6.279060568399232 0.32628327875756913 Z" fill="#202020" transform="matrix(1,0,0,1,0,0)" fill-rule="nonzero"></path></g><g clip-path="url(#b440de234-f493-41ca-9cba-20e6296ccbf0bab32a90-b275-413e-955b-c346be0186d9)"><path d=" M 5.30706574943141 0.6004536500588165 L 5.805531825539037 0.6004536500588165 C 5.8189310586599685 0.5999508743406885 5.829534100157362 0.5889425161740919 5.829534100157362 0.575533853613948 C 5.829534100157362 0.5621251910538042 5.8189310586599685 0.5511168328872076 5.805531825539037 0.5506140571690796 L 5.30706574943141 0.5506140571690796 C 5.293302925886022 0.5506140571690796 5.282145952986541 0.5617710300685596 5.282145952986541 0.575533853613948 C 5.282145952986541 0.5892966771593365 5.293302925886022 0.6004536500588165 5.30706574943141 0.6004536500588165" fill="#202020" transform="matrix(1,0,0,1,0,0)" fill-rule="nonzero"></path></g><g clip-path="url(#b440de234-f493-41ca-9cba-20e6296ccbf0bab32a90-b275-413e-955b-c346be0186d9)"><path d=" M 5.905211011318511 0.6004536500588165 L 6.104604456482589 0.6004536500588165 C 6.118003689603519 0.5999508743406885 6.128606731100913 0.5889425161740919 6.128606731100913 0.575533853613948 C 6.128606731100913 0.5621251910538042 6.118003689603519 0.5511168328872076 6.104604456482588 0.5506140571690796 L 5.905211011318511 0.5506140571690796 C 5.892075837515707 0.5514680289275937 5.8818587430884985 0.5623709489727147 5.8818587430884985 0.575533853613948 C 5.8818587430884985 0.5886967582551814 5.892075837515708 0.5995996783003024 5.905211011318511 0.6004536500588165" fill="#202020" transform="matrix(1,0,0,1,0,0)" fill-rule="nonzero"></path></g><g clip-path="url(#b440de234-f493-41ca-9cba-20e6296ccbf0bab32a90-b275-413e-955b-c346be0186d9)"><path d=" M 5.30706574943141 0.7001328358382898 L 5.6061383803749605 0.7001328358382898 C 5.619537613495892 0.6996300601201618 5.630140654993284 0.6886217019535652 5.630140654993284 0.6752130393934215 C 5.630140654993284 0.6618043768332776 5.619537613495892 0.650796018666681 5.6061383803749605 0.6502932429485531 L 5.30706574943141 0.6502932429485531 C 5.293302925886022 0.6502932429485531 5.282145952986541 0.661450215848033 5.282145952986541 0.6752130393934215 C 5.282145952986541 0.6889758629388099 5.293302925886022 0.7001328358382898 5.30706574943141 0.7001328358382898" fill="#202020" transform="matrix(1,0,0,1,0,0)" fill-rule="nonzero"></path></g><g clip-path="url(#b440de234-f493-41ca-9cba-20e6296ccbf0bab32a90-b275-413e-955b-c346be0186d9)"><path d=" M 5.30706574943141 1.3979923571099948 L 6.104604456482589 1.3979923571099948 C 6.117739630285392 1.3971383853514807 6.127956724712601 1.3862354653063595 6.127956724712601 1.3730725606651264 C 6.127956724712601 1.359909656023893 6.117739630285392 1.349006735978772 6.104604456482589 1.348152764220258 L 5.332003082678844 1.348152764220258 L 5.332003082678844 0.8745889477549337 C 5.332003082678844 0.8608164389009278 5.3208382582854155 0.8496516145075004 5.30706574943141 0.8496516145075004 C 5.2932932405774045 0.8496516145075004 5.282128416183976 0.8608164389009278 5.282128416183976 0.8745889477549337 L 5.282128416183976 1.3730550238625614 C 5.282128416183976 1.3868038770735232 5.293281822615318 1.3979923571099948 5.30706574943141 1.3979923571099948" fill="#facf0e" transform="matrix(1,0,0,1,0,0)" fill-rule="nonzero"></path></g><g clip-path="url(#b440de234-f493-41ca-9cba-20e6296ccbf0bab32a90-b275-413e-955b-c346be0186d9)"><path d=" M 6.084612501558485 0.8596125183644217 C 5.797114160307837 1.2430020960405035 5.410567958170054 1.2484735784407843 5.406674788000624 1.2484735784407843 C 5.392911964455235 1.2484929490580192 5.38177069454365 1.2596656249453944 5.381790065160885 1.2734284484907827 C 5.38180943577812 1.2871912720361711 5.392982111665495 1.298332541947756 5.406744935210884 1.2983131713305212 C 5.423545192068156 1.2983131713305212 5.82145524226806 1.2936483818482305 6.12452626419643 0.8896004507505756 C 6.132796648906197 0.8785733615176332 6.130584765547182 0.862933306844307 6.1195808858731 0.854632066435961 C 6.108514303436533 0.846488928884407 6.0929655368507785 0.8487034974452667 6.084612501558485 0.8596125183644217" fill="#facf0e" transform="matrix(1,0,0,1,0,0)" fill-rule="nonzero"></path></g></g></g><defs><clipPath id="SvgjsClipPath1001"><path d=" M 4.683983154296875 -0.04755385066157669 h 2.0436827013231533 v 2.0436827013231533 h -2.0436827013231533 Z"></path></clipPath><clipPath id="a440de234-f493-41ca-9cba-20e6296ccbf0bab32a90-b275-413e-955b-c346be0186d9"><path d=" M 4.683983154296875 1.996102545391966 L 6.727651978011993 1.996102545391966 L 6.727651978011993 -0.04756627832315155 L 4.683983154296875 -0.04756627832315155 Z"></path></clipPath><clipPath id="SvgjsClipPath1000bab32a90-b275-413e-955b-c346be0186d9"><path d=" M 4.683983154296875 -0.04755385066157669 L 6.727665855620028 -0.04755385066157669 L 6.727665855620028 1.9961288506615766 L 4.683983154296875 1.9961288506615766 Z"></path></clipPath><clipPath id="b440de234-f493-41ca-9cba-20e6296ccbf0bab32a90-b275-413e-955b-c346be0186d9"><path d=" M 4.683983154296875 1.996102545391966 L 6.727651978011993 1.996102545391966 L 6.727651978011993 -0.04756627832315155 L 4.683983154296875 -0.04756627832315155 Z"></path></clipPath></defs></svg>